<?xml version="1.0" encoding="UTF-8" standalone="no"?>
<!DOCTYPE svg PUBLIC "-//W3C//DTD SVG 1.1//EN" "http://www.w3.org/Graphics/SVG/1.1/DTD/svg11.dtd">
<svg width="100%" height="100%" viewBox="0 0 681 491" version="1.1" xmlns="http://www.w3.org/2000/svg"
     xml:space="preserve"
     style="fill-rule:evenodd;clip-rule:evenodd;">
    <g>
        <rect x="20.5" y="20.5" width="640" height="450"
              style="fill:white;fill-rule:nonzero;stroke:black;stroke-width:1px;"/>
        <g transform="matrix(1,0,0,0.920602,0,34.975)">
            <path d="M40.5,40.5L640.5,40.5L640.5,200.5L40.5,200.5L40.5,40.5ZM40.5,280.5L640.5,280.5L640.5,440.5L40.5,440.5L40.5,280.5Z"
                  style="fill:white;fill-rule:nonzero;stroke:black;stroke-width:1px;"/>
        </g>
    </g>
    <g transform="matrix(1,0,0,0.597983,0,112.565)">
        <path d="M345.5,261L356,261L340.5,280L325,261L335.5,261L335.5,220L325,220L340.5,201L356,220L345.5,220L345.5,261Z"
              style="fill:none;fill-rule:nonzero;stroke:black;stroke-width:1px;stroke-linejoin:round;stroke-miterlimit:10;"/>
    </g>
    <g transform="matrix(1,0,0,1,0,32)">
        <rect x="470.5" y="40.5" width="170" height="100"
              style="fill:white;fill-rule:nonzero;stroke:black;stroke-width:1px;"/>
    </g>
    <g transform="matrix(1,0,0,1,555,126)">
        <text x="-43.356px" y="0px" style="font-family:'ArialMT', 'Arial', sans-serif;font-size:12px;">Frontend <tspan
                x="7.345px 15.349px " y="0px 0px ">As</tspan>sets</text>
    </g>
    <g transform="matrix(1,0,0,1,0,32)">
        <rect x="40.5" y="140.5" width="600" height="60"
              style="fill:white;fill-rule:nonzero;stroke:black;stroke-width:1px;"/>
    </g>
    <g transform="matrix(1,0,0,1,255,126)">
        <text x="-18.229px" y="0px" style="font-family:'ArialMT', 'Arial', sans-serif;font-size:12px;">W<tspan
                x="-7.119px -0.445px " y="0px 0px ">eb</tspan>kit</text>
    </g>
    <g transform="matrix(1,0,0,1,255,206)">
        <text x="-32.687px" y="0px"
              style="font-family:'ArialMT', 'Arial', sans-serif;font-size:12px;">Go Bindings</text>
    </g>
    <g transform="matrix(1,0,0,1,0,32)">
        <rect x="40.5" y="140.5" width="430" height="60"
              style="fill:white;fill-rule:nonzero;stroke:black;stroke-width:1px;"/>
    </g>
    <g transform="matrix(1,0,0,1,255,206)">
        <text x="-74.704px" y="0px" style="font-family:'ArialMT', 'Arial', sans-serif;font-size:12px;">JS Bindings for Go methods</text>
    </g>
    <g transform="matrix(1,0,0,1,0,32)">
        <rect x="470.5" y="140.5" width="170" height="60"
              style="fill:white;fill-rule:nonzero;stroke:black;stroke-width:1px;"/>
    </g>
    <g transform="matrix(1,0,0,1,555,206)">
        <text x="-31.011px" y="0px" style="font-family:'ArialMT', 'Arial', sans-serif;font-size:12px;">JS Runtime</text>
    </g>
    <rect x="40.5" y="280.5" width="600" height="60"
          style="fill:white;fill-rule:nonzero;stroke:black;stroke-width:1px;"/>
    <g transform="matrix(1,0,0,1,340,314)">
        <text x="-32.013px" y="0px" style="font-family:'ArialMT', 'Arial', sans-serif;font-size:12px;">Go Runtime</text>
    </g>
    <rect x="40.5" y="340.5" width="600" height="100"
          style="fill:white;fill-rule:nonzero;stroke:black;stroke-width:1px;"/>
    <g transform="matrix(1,0,0,1,340,394)">
        <text x="-54.703px" y="0px" style="font-family:'ArialMT', 'Arial', sans-serif;font-size:12px;">Go <tspan
                x="-36.023px -28.02px " y="0px 0px ">Ap</tspan>plication Code</text>
    </g>
    <g transform="matrix(1,0,0,1,341.694,45.9172)">
        <text x="-92.493px" y="0px" style="font-family:'ArialMT', 'Arial', sans-serif;font-size:12px;">Components of a W<tspan
                x="13.11px 19.784px " y="0px 0px ">ai</tspan>ls <tspan x="33.788px 41.792px " y="0px 0px ">Ap</tspan>plication</text>
    </g>
</svg>
