<svg xmlns="http://www.w3.org/2000/svg" width="50%" height="50%" version="1.1" viewBox="0 0 150 150" xml:space="preserve" style="fill-rule:evenodd;clip-rule:evenodd;stroke-linejoin:round;stroke-miterlimit:2"><g><path d="M3.34,0L119.54,0C121.37,0.005 122.875,1.51 122.88,3.34L122.88,80.34C122.875,82.17 121.37,83.675 119.54,83.68L3.34,83.68C1.506,83.675 -0,82.164 -0,80.33C-0,80.327 -0,80.323 0,80.32L0,3.32C0.016,1.497 1.517,0.005 3.34,0ZM12.62,23.21L21.26,23.21C21.669,23.22 22.001,23.56 22.001,23.97C22.001,23.98 22,23.99 22,24L22,26.9C21.995,27.313 21.653,27.65 21.24,27.65L12.62,27.65C12.207,27.65 11.865,27.313 11.86,26.9L11.86,24C11.865,23.587 12.207,23.25 12.62,23.25L12.62,23.21ZM12.62,47.58L42.86,47.58C43.273,47.58 43.615,47.917 43.62,48.33L43.62,51.27C43.615,51.683 43.273,52.02 42.86,52.02L12.62,52.02C12.207,52.02 11.865,51.683 11.86,51.27L11.86,48.33C11.865,47.917 12.207,47.58 12.62,47.58ZM12.62,35.17L31.34,35.17C31.755,35.175 32.095,35.515 32.1,35.93L32.1,38.87C32.089,39.281 31.751,39.615 31.34,39.62L12.62,39.62C12.207,39.62 11.865,39.283 11.86,38.87L11.86,35.93C11.86,35.513 12.203,35.17 12.62,35.17ZM12.62,59.98L55.82,59.98C56.233,59.985 56.57,60.327 56.57,60.74L56.57,63.68C56.565,64.089 56.229,64.425 55.82,64.43L12.62,64.43C12.207,64.43 11.865,64.093 11.86,63.68L11.86,60.74C11.86,60.323 12.203,59.98 12.62,59.98ZM46.29,88.27L76.59,88.27C76.67,93.51 78.83,98.21 84.68,101.9L38.2,101.9C42.91,98.49 46.31,94.36 46.29,88.27ZM118.51,11.65L118.51,70.84C118.51,72.486 117.156,73.84 115.51,73.84L7.33,73.84C5.703,73.813 4.38,72.467 4.38,70.84L4.38,11.65L31.54,11.65L31.54,15.52C31.54,16.617 32.443,17.52 33.54,17.52L36.59,17.52C36.889,18.866 37.363,20.167 38,21.39L35.66,23.74C34.909,24.512 34.909,25.758 35.66,26.53L38.57,29.45C39.343,30.207 40.597,30.207 41.37,29.45L43.52,27.29C44.701,28.026 45.976,28.602 47.31,29L47.31,32.32C47.31,33.417 48.213,34.32 49.31,34.32L53.44,34.32C54.537,34.32 55.44,33.417 55.44,32.32L55.44,29.32C56.797,29.013 58.106,28.521 59.33,27.86L61.68,30.21C62.452,30.961 63.698,30.961 64.47,30.21L67.39,27.29C68.141,26.518 68.141,25.272 67.39,24.5L65.24,22.35C65.977,21.171 66.556,19.9 66.96,18.57L70.28,18.57C71.377,18.57 72.28,17.667 72.28,16.57L72.28,12.44C72.279,12.169 72.225,11.9 72.12,11.65L118.51,11.65ZM105.21,25.91L108.45,29.15C109.295,29.999 109.295,31.391 108.45,32.24L105.84,34.85C106.569,36.208 107.114,37.658 107.46,39.16L110.83,39.16C112.022,39.176 112.995,40.158 113,41.35L113,45.93C113,47.131 112.011,48.12 110.81,48.12L107.13,48.12C106.683,49.596 106.041,51.005 105.22,52.31L107.61,54.7C108.456,55.552 108.456,56.948 107.61,57.8L104.39,61C103.538,61.846 102.142,61.846 101.29,61L98.69,58.39C97.328,59.119 95.876,59.664 94.37,60.01L94.37,63.39C94.365,64.589 93.379,65.575 92.18,65.58L87.6,65.58C86.401,65.575 85.415,64.589 85.41,63.39L85.41,59.74C83.935,59.291 82.526,58.649 81.22,57.83L78.83,60.22C77.978,61.066 76.582,61.066 75.73,60.22L72.5,57C71.655,56.151 71.655,54.759 72.5,53.91L75.1,51.3C74.379,49.943 73.838,48.497 73.49,47L70.11,47C68.911,46.995 67.925,46.009 67.92,44.81L67.92,40.2C67.92,38.997 68.907,38.005 70.11,38L73.8,38C74.243,36.523 74.885,35.113 75.71,33.81L73.32,31.42C72.906,31.011 72.673,30.452 72.673,29.87C72.673,29.288 72.906,28.729 73.32,28.32L76.55,25.08C77.402,24.234 78.798,24.234 79.65,25.08L82.26,27.69C83.618,26.961 85.068,26.416 86.57,26.07L86.57,22.7C86.575,21.501 87.561,20.515 88.76,20.51L93.34,20.51C94.539,20.515 95.525,21.501 95.53,22.7L95.53,26.39C97.006,26.837 98.415,27.479 99.72,28.3L102.11,25.91C102.962,25.064 104.358,25.064 105.21,25.91ZM59.64,11.65C59.869,12.41 59.985,13.199 59.985,13.992C59.985,18.446 56.32,22.112 51.865,22.112C47.41,22.112 43.745,18.446 43.745,13.992C43.745,13.199 43.861,12.41 44.09,11.65L59.64,11.65ZM90.47,34.06C95.407,34.06 99.47,38.123 99.47,43.06C99.47,47.997 95.407,52.06 90.47,52.06C85.533,52.06 81.47,47.997 81.47,43.06C81.47,38.123 85.533,34.06 90.47,34.06ZM113.8,4.92C114.897,4.92 115.8,5.823 115.8,6.92C115.8,8.017 114.897,8.92 113.8,8.92C112.703,8.92 111.8,8.017 111.8,6.92C111.8,5.823 112.703,4.92 113.8,4.92ZM100.36,4.92C101.457,4.92 102.36,5.823 102.36,6.92C102.36,8.017 101.457,8.92 100.36,8.92C99.263,8.92 98.36,8.017 98.36,6.92C98.36,5.823 99.263,4.92 100.36,4.92ZM107.08,4.92C108.177,4.92 109.08,5.823 109.08,6.92C109.08,8.017 108.177,8.92 107.08,8.92C105.983,8.92 105.08,8.017 105.08,6.92C105.08,5.823 105.983,4.92 107.08,4.92Z" transform="matrix(1.2207,0,0,1.21688,0,0)" style="fill:#fff"/></g></svg>