<svg xmlns="http://www.w3.org/2000/svg" width="100%" height="100%" version="1.1" viewBox="0 0 32 32" xml:space="preserve" style="fill-rule:evenodd;clip-rule:evenodd;stroke-linejoin:round;stroke-miterlimit:2"><path d="M16,5C10.488,5 6,9.488 6,15L6,23C6,24.117 5.117,25 4,25L4,27C6.199,27 8,25.199 8,23L8,15C8,10.57 11.57,7 16,7C17.016,7 17.984,7.188 18.875,7.531C18.582,7.945 18.738,8.676 19.281,9.219C19.867,9.805 20.672,9.953 21.063,9.563C21.207,9.418 21.25,9.195 21.25,8.969C22.93,10.434 24,12.586 24,15L24,23C24,25.199 25.801,27 28,27L28,25C26.883,25 26,24.117 26,23L26,15C26,9.488 21.512,5 16,5ZM13,11C11.48,11 10.332,11.852 9.75,12.875C9.168,13.898 9,15.047 9,16C9,17.355 9.414,18.348 9.875,18.969C9.918,19.027 9.957,19.07 10,19.125C9.387,19.781 9,20.594 9,21.5C9,22.93 9.973,24.098 11.25,24.844C12.527,25.59 14.184,26 16,26C17.816,26 19.473,25.59 20.75,24.844C22.027,24.098 23,22.93 23,21.5C23,20.594 22.613,19.781 22,19.125C22.043,19.07 22.082,19.027 22.125,18.969C22.586,18.348 23,17.355 23,16C23,15.047 22.832,13.898 22.25,12.875C21.668,11.852 20.52,11 19,11C17.668,11 16.629,11.652 16,12.5C15.371,11.652 14.332,11 13,11ZM13,13C13.867,13 14.211,13.313 14.531,13.875C14.852,14.438 15,15.293 15,16L17,16C17,15.293 17.148,14.438 17.469,13.875C17.789,13.313 18.133,13 19,13C19.867,13 20.211,13.313 20.531,13.875C20.852,14.438 21,15.293 21,16C21,16.961 20.723,17.48 20.5,17.781C20.43,17.879 20.391,17.922 20.344,17.969C20.117,17.855 19.898,17.719 19.656,17.625C19.867,17.352 20,16.953 20,16.5C20,15.672 19.551,15 19,15C18.449,15 18,15.672 18,16.5C18,16.766 18.078,17.004 18.156,17.219C17.469,17.082 16.758,17 16,17C15.242,17 14.531,17.082 13.844,17.219C13.922,17.004 14,16.766 14,16.5C14,15.672 13.551,15 13,15C12.449,15 12,15.672 12,16.5C12,16.953 12.133,17.352 12.344,17.625C12.102,17.719 11.883,17.855 11.656,17.969C11.609,17.922 11.57,17.879 11.5,17.781C11.277,17.48 11,16.961 11,16C11,15.293 11.148,14.438 11.469,13.875C11.789,13.313 12.133,13 13,13ZM16,19C17.5,19 18.855,19.352 19.75,19.875C20.645,20.398 21,20.996 21,21.5C21,22.004 20.645,22.602 19.75,23.125C18.855,23.648 17.5,24 16,24C14.5,24 13.145,23.648 12.25,23.125C11.355,22.602 11,22.004 11,21.5C11,20.996 11.355,20.398 12.25,19.875C13.145,19.352 14.5,19 16,19ZM13.5,20.438L12.5,22.156C12.5,22.156 13.926,23 16,23C18.074,23 19.5,22.156 19.5,22.156L18.5,20.438C18.5,20.438 17.547,21 16,21C14.453,21 13.5,20.438 13.5,20.438Z" style="fill:#fff;fill-rule:nonzero"/></svg>