<svg xmlns="http://www.w3.org/2000/svg" viewBox="0 0 32 32"><path d="M 16 5 C 10.488281 5 6 9.488281 6 15 L 6 23 C 6 24.117188 5.117188 25 4 25 L 4 27 C 6.199219 27 8 25.199219 8 23 L 8 15 C 8 10.570313 11.570313 7 16 7 C 17.015625 7 17.984375 7.1875 18.875 7.53125 C 18.582031 7.945313 18.738281 8.675781 19.28125 9.21875 C 19.867188 9.804688 20.671875 9.953125 21.0625 9.5625 C 21.207031 9.417969 21.25 9.195313 21.25 8.96875 C 22.929688 10.433594 24 12.585938 24 15 L 24 23 C 24 25.199219 25.800781 27 28 27 L 28 25 C 26.882813 25 26 24.117188 26 23 L 26 15 C 26 9.488281 21.511719 5 16 5 Z M 13 11 C 11.480469 11 10.332031 11.851563 9.75 12.875 C 9.167969 13.898438 9 15.046875 9 16 C 9 17.355469 9.414063 18.347656 9.875 18.96875 C 9.917969 19.027344 9.957031 19.070313 10 19.125 C 9.386719 19.78125 9 20.59375 9 21.5 C 9 22.929688 9.972656 24.097656 11.25 24.84375 C 12.527344 25.589844 14.183594 26 16 26 C 17.816406 26 19.472656 25.589844 20.75 24.84375 C 22.027344 24.097656 23 22.929688 23 21.5 C 23 20.59375 22.613281 19.78125 22 19.125 C 22.042969 19.070313 22.082031 19.027344 22.125 18.96875 C 22.585938 18.347656 23 17.355469 23 16 C 23 15.046875 22.832031 13.898438 22.25 12.875 C 21.667969 11.851563 20.519531 11 19 11 C 17.667969 11 16.628906 11.652344 16 12.5 C 15.371094 11.652344 14.332031 11 13 11 Z M 13 13 C 13.867188 13 14.210938 13.3125 14.53125 13.875 C 14.851563 14.4375 15 15.292969 15 16 L 17 16 C 17 15.292969 17.148438 14.4375 17.46875 13.875 C 17.789063 13.3125 18.132813 13 19 13 C 19.867188 13 20.210938 13.3125 20.53125 13.875 C 20.851563 14.4375 21 15.292969 21 16 C 21 16.960938 20.722656 17.480469 20.5 17.78125 C 20.429688 17.878906 20.390625 17.921875 20.34375 17.96875 C 20.117188 17.855469 19.898438 17.71875 19.65625 17.625 C 19.867188 17.351563 20 16.953125 20 16.5 C 20 15.671875 19.550781 15 19 15 C 18.449219 15 18 15.671875 18 16.5 C 18 16.765625 18.078125 17.003906 18.15625 17.21875 C 17.46875 17.082031 16.757813 17 16 17 C 15.242188 17 14.53125 17.082031 13.84375 17.21875 C 13.921875 17.003906 14 16.765625 14 16.5 C 14 15.671875 13.550781 15 13 15 C 12.449219 15 12 15.671875 12 16.5 C 12 16.953125 12.132813 17.351563 12.34375 17.625 C 12.101563 17.71875 11.882813 17.855469 11.65625 17.96875 C 11.609375 17.921875 11.570313 17.878906 11.5 17.78125 C 11.277344 17.480469 11 16.960938 11 16 C 11 15.292969 11.148438 14.4375 11.46875 13.875 C 11.789063 13.3125 12.132813 13 13 13 Z M 16 19 C 17.5 19 18.855469 19.351563 19.75 19.875 C 20.644531 20.398438 21 20.996094 21 21.5 C 21 22.003906 20.644531 22.601563 19.75 23.125 C 18.855469 23.648438 17.5 24 16 24 C 14.5 24 13.144531 23.648438 12.25 23.125 C 11.355469 22.601563 11 22.003906 11 21.5 C 11 20.996094 11.355469 20.398438 12.25 19.875 C 13.144531 19.351563 14.5 19 16 19 Z M 13.5 20.4375 L 12.5 22.15625 C 12.5 22.15625 13.925781 23 16 23 C 18.074219 23 19.5 22.15625 19.5 22.15625 L 18.5 20.4375 C 18.5 20.4375 17.546875 21 16 21 C 14.453125 21 13.5 20.4375 13.5 20.4375 Z"/></svg>