<svg xmlns="http://www.w3.org/2000/svg" width="100%" height="100%" version="1.1" viewBox="0 0 60 60" xml:space="preserve" style="fill-rule:evenodd;clip-rule:evenodd;stroke-linejoin:round;stroke-miterlimit:2"><path d="M51.13,19.57C50.884,19.724 45.028,22.974 45.028,30.18C45.304,38.398 52.418,41.28 52.54,41.28C52.418,41.434 51.466,45.206 48.646,49.16C46.408,52.566 43.924,56 40.152,56C36.564,56 35.276,53.73 31.136,53.73C26.69,53.73 25.432,56 22.028,56C18.256,56 15.588,52.382 13.228,49.008C10.162,44.592 7.556,37.662 7.464,31.008C7.402,27.482 8.078,24.016 9.794,21.072C12.216,16.962 16.54,14.172 21.262,14.08C24.88,13.958 28.1,16.564 30.308,16.564C32.424,16.564 36.38,14.08 40.856,14.08C42.788,14.082 47.94,14.664 51.13,19.57ZM30.002,13.376C29.358,10.156 31.136,6.936 32.792,4.882C34.908,2.398 38.25,0.712 41.132,0.712C41.316,3.932 40.15,7.09 38.066,9.39C36.196,11.874 32.976,13.744 30.002,13.376Z" style="fill:#fff;fill-rule:nonzero"/></svg>