<svg xmlns="http://www.w3.org/2000/svg" width="100%" height="100%" version="1.1" viewBox="0 0 512 512" xml:space="preserve" style="fill-rule:evenodd;clip-rule:evenodd;stroke-linejoin:round;stroke-miterlimit:2"><rect width="421.699" height="275.098" x="29.033" y="88.314" style="fill:#ebebeb"/><g><path d="M0,96C0,60.6 28.6,32 64,32L448,32C483.4,32 512,60.6 512,96L512,416C512,451.4 483.4,480 448,480L64,480C28.6,480 0,451.4 0,416L0,96ZM304,272L208,272C199.2,272 192,279.2 192,288C192,296.8 199.2,304 208,304L304,304C312.8,304 320,296.8 320,288C320,279.2 312.8,272 304,272ZM100.7,260.7L153.4,208L100.7,155.3C94.4,149 94.4,138.9 100.7,132.6C107,126.3 117.1,126.3 123.4,132.6L187.4,196.6C193.7,202.9 193.7,213 187.4,219.2L123.4,283.2C117.1,289.5 107,289.5 100.7,283.2C94.4,277.1 94.4,266.9 100.7,260.7Z"/></g></svg>