<svg xmlns="http://www.w3.org/2000/svg" width="100%" height="100%" version="1.1" viewBox="0 0 550 310" xml:space="preserve" style="fill-rule:evenodd;clip-rule:evenodd;stroke-linejoin:round;stroke-miterlimit:2"><g><path d="M0.883,-0.081L0.121,0.081L0.256,-0.063L0.883,-0.081Z" transform="matrix(-166.599,4.57132,4.57132,166.599,147.403,167.648)" style="fill:url(#_Linear1);fill-rule:nonzero"/></g><g><path d="M0.878,-0.285L-0.073,0.71L-1.186,0.542L0.015,0.207L-0.846,0.077L0.355,-0.258L-0.505,-0.388L0.649,-0.71L0.878,-0.285Z" transform="matrix(-106.443,-16.0669,-16.0669,106.443,428.19,188.033)" style="fill:url(#_Linear2);fill-rule:nonzero"/></g><g><path d="M0.44,-0.04L0.265,-0.056L0.177,0.437L-0.311,-0.255L0.262,-0.437L0.568,-0.437L0.44,-0.04Z" transform="matrix(-114.484,-162.408,-162.408,114.484,333.291,285.804)" style="fill:url(#_Linear3);fill-rule:nonzero"/></g><g><path d="M0.622,-0.115L0.761,-0.115L0.806,-0.013L0.826,0.182L0.622,-0.115Z" transform="matrix(238.126,298.893,298.893,-238.126,113.516,-150.536)" style="fill:url(#_Linear4);fill-rule:nonzero"/></g><g><path d="M0.467,0.005L0.49,0.062L0.271,-0.062L0.467,0.005Z" transform="matrix(-369.529,-97.4118,-97.4118,369.529,582.38,94.027)" style="fill:url(#_Linear5);fill-rule:nonzero"/></g><g><path d="M0.2,0.001L0.219,-0.018L0.614,0.012L0.519,0.089L0.282,0.068L0.2,0.135L0.463,0.194L0.374,0.266L0.138,0.186L0.047,0.033L-0.131,-0.266L0.2,0.001Z" transform="matrix(-496.156,-53.9751,-53.9751,496.156,367.888,125.085)" style="fill:url(#_Linear6);fill-rule:nonzero"/></g><g><path d="M269.095,104.527L287.764,111.419L263.632,106.75L269.095,104.527Z" transform="matrix(0.436503,-1.22916,4.88651,1.73532,-368.043,253.619)" style="fill:#fff"/></g><defs><linearGradient id="_Linear1" x1="0" x2="1" y1="0" y2="0" gradientTransform="matrix(1,-3.46945e-18,3.46945e-18,1,0,-3.05761e-06)" gradientUnits="userSpaceOnUse"><stop offset="0" style="stop-color:#e33232;stop-opacity:1"/><stop offset="1" style="stop-color:#6b000d;stop-opacity:1"/></linearGradient><linearGradient id="_Linear2" x1="0" x2="1" y1="0" y2="0" gradientTransform="matrix(1,0,0,1,0,-2.75467e-06)" gradientUnits="userSpaceOnUse"><stop offset="0" style="stop-color:#e33232;stop-opacity:1"/><stop offset="1" style="stop-color:#6b000d;stop-opacity:1"/></linearGradient><linearGradient id="_Linear3" x1="0" x2="1" y1="0" y2="0" gradientTransform="matrix(1,-1.11022e-16,1.11022e-16,1,0,-2.61861e-06)" gradientUnits="userSpaceOnUse"><stop offset="0" style="stop-color:#e33232;stop-opacity:1"/><stop offset="1" style="stop-color:#6b000d;stop-opacity:1"/></linearGradient><linearGradient id="_Linear4" x1="0" x2="1" y1="0" y2="0" gradientTransform="matrix(-0.801899,-0.59746,0.59746,-0.801899,1.3495,0.447457)" gradientUnits="userSpaceOnUse"><stop offset="0" style="stop-color:#e33232;stop-opacity:1"/><stop offset="1" style="stop-color:#6b000d;stop-opacity:1"/></linearGradient><linearGradient id="_Linear5" x1="0" x2="1" y1="0" y2="0" gradientTransform="matrix(1,-2.77556e-17,2.77556e-17,1,0,-1.92826e-06)" gradientUnits="userSpaceOnUse"><stop offset="0" style="stop-color:#e33232;stop-opacity:1"/><stop offset="1" style="stop-color:#6b000d;stop-opacity:1"/></linearGradient><linearGradient id="_Linear6" x1="0" x2="1" y1="0" y2="0" gradientTransform="matrix(1,0,0,1,0,9.68429e-07)" gradientUnits="userSpaceOnUse"><stop offset="0" style="stop-color:#e33232;stop-opacity:1"/><stop offset="1" style="stop-color:#6b000d;stop-opacity:1"/></linearGradient></defs></svg>