<svg xmlns="http://www.w3.org/2000/svg" width="100%" height="100%" version="1.1" viewBox="0 0 180 167" xml:space="preserve" style="fill-rule:evenodd;clip-rule:evenodd;stroke-linejoin:round;stroke-miterlimit:2"><g><path d="M196,19.285C196,14.712 192.095,11 187.286,11L27.714,11C22.905,11 19,14.712 19,19.285L19,158.715C19,163.288 22.905,167 27.714,167L187.286,167C192.095,167 196,163.288 196,158.715L196,19.285Z" transform="matrix(1.00565,0,0,1.05769,-18.1073,-10.6346)" style="fill:#fff"/></g><g><path d="M0,-51.891L14.429,-51.891L13.043,-21.183L22.568,-51.891L34.226,-51.891L34.084,-21.183L42.365,-51.891L56.794,-51.891L38.526,0L25.198,0L25.34,-32.45L15.211,0L1.919,0L0,-51.891Z" transform="matrix(2.51258,0,0,2.51258,20.0103,151.138)" style="fill-rule:nonzero"/></g></svg>