<?xml version="1.0" encoding="UTF-8" standalone="no"?>
<!-- Created with Keyshape -->
<svg xmlns="http://www.w3.org/2000/svg" fill-rule="evenodd" stroke-linejoin="round" stroke-miterlimit="2" viewBox="0 0 551 436">
    <defs>
        <linearGradient id="Gradient-0" x1="0.121" y1="-0.081" x2="0.883" y2="-0.081" gradientUnits="userSpaceOnUse" gradientTransform="matrix(1 0 0 -1 0 -4.86e-07)">
            <stop offset="0" stop-color="#e33232"/>
            <stop offset="1" stop-color="#6b000d"/>
        </linearGradient>
        <linearGradient id="Gradient-1" x1="-1.186" y1="-0.71" x2="0.878" y2="-0.71" gradientUnits="userSpaceOnUse">
            <stop offset="0" stop-color="#e33232"/>
            <stop offset="1" stop-color="#6b000d"/>
        </linearGradient>
        <linearGradient id="Gradient-2" x1="-0.311" y1="-0.437" x2="0.568" y2="-0.437" gradientUnits="userSpaceOnUse" gradientTransform="matrix(1 0 0 -1 0 -2.622e-06)">
            <stop offset="0" stop-color="#e33232"/>
            <stop offset="1" stop-color="#6b000d"/>
        </linearGradient>
        <linearGradient id="Gradient-3" x1="0.622" y1="-0.115" x2="0.826" y2="-0.115" gradientUnits="userSpaceOnUse" gradientTransform="matrix(-0.801899 -0.59746 -0.59746 0.801899 0.275298 0.132895)">
            <stop offset="0" stop-color="#e33232"/>
            <stop offset="1" stop-color="#6b000d"/>
        </linearGradient>
        <linearGradient id="Gradient-4" x1="0.271" y1="-0.062" x2="0.49" y2="-0.062" gradientUnits="userSpaceOnUse" gradientTransform="matrix(1 0 0 -1 0 -2.48e-07)">
            <stop offset="0" stop-color="#e33232"/>
            <stop offset="1" stop-color="#6b000d"/>
        </linearGradient>
        <linearGradient id="Gradient-5" x1="-0.131" y1="-0.266" x2="0.614" y2="-0.266" gradientUnits="userSpaceOnUse">
            <stop offset="0" stop-color="#e33232"/>
            <stop offset="1" stop-color="#6b000d"/>
        </linearGradient>
    </defs>
    <style>
@keyframes a0_t { 0% { transform: translate(2.676px,447.734px); } 66.6% { transform: translate(2.676px,20.734px); } 100% { transform: translate(2.676px,20.734px); } }
@keyframes a0_o { 0% { opacity: 0; } 66.6% { opacity: 1; } 100% { opacity: 1; } }
@keyframes a1_t { 0% { transform: translate(2.676px,447.734px); } 66.6% { transform: translate(2.676px,20.734px); } 100% { transform: translate(2.676px,20.734px); } }
@keyframes a1_o { 0% { opacity: 0; animation-timing-function: cubic-bezier(0.895,0.03,0.685,0.22); } 66.6% { opacity: 1; } 100% { opacity: 1; } }
@keyframes a2_t { 0% { transform: translate(283.11px,622.306px) skewX(0deg) skewY(0deg) scale(1,1) translate(-291.11px,-367.306px); } 60% { transform: translate(283.11px,424.306px) skewX(0deg) skewY(0deg) scale(0,0) translate(-291.11px,-367.306px); } 80% { transform: translate(283.11px,358.306px) skewX(0deg) skewY(0deg) scale(0.5,0.5) translate(-291.11px,-367.306px); } 100% { transform: translate(283.11px,358.306px) skewX(0deg) skewY(0deg) scale(1,1) translate(-291.11px,-367.306px); } }
@keyframes a2_o { 0% { opacity: 1; } 60% { opacity: 0; } 80% { opacity: 1; } 100% { opacity: 1; } }
@keyframes a2_d { 0% { d: path('M116.615,341.29L131.044,341.29L129.658,371.998L139.183,341.29L150.841,341.29L150.699,371.998L158.98,341.29L173.409,341.29L155.141,393.181L141.813,393.181L141.955,360.731L131.826,393.181L118.534,393.181ZM226.834,375.055L232.627,375.055L232.805,355.827ZM206.647,393.181L226.159,341.29L243.254,341.29L246.914,393.181L232.271,393.181L232.343,385.539L223.777,385.539L221.502,393.181ZM291.834,393.181L300.044,341.289L314.545,341.289L306.299,393.18L291.834,393.18ZM360.484,393.18L368.73,341.289L383.265,341.289L377.081,380.313L387.708,380.313L385.683,393.18ZM432.623,377.221C434.234,378.572,435.928,379.615,437.706,380.35C439.484,381.085,441.188,381.451,442.823,381.451C444.268,381.451,445.417,381.054,446.27,380.261C447.123,379.468,447.55,378.383,447.55,377.008C447.55,375.825,447.194,374.645,446.484,373.472C445.774,372.299,444.398,370.742,442.361,368.799C439.896,366.406,438.203,364.297,437.278,362.472C436.353,360.647,435.893,358.634,435.893,356.431C435.893,351.479,437.462,347.545,440.602,344.631C443.742,341.717,448,340.259,453.379,340.259C455.559,340.259,457.631,340.502,459.598,340.988C461.565,341.474,463.566,342.226,465.605,343.245L463.543,355.898C461.979,354.808,460.457,353.979,458.977,353.41C457.497,352.841,456.08,352.556,454.729,352.556C453.521,352.556,452.566,352.87,451.868,353.497C451.17,354.124,450.819,354.985,450.819,356.075C450.819,357.545,452.158,359.606,454.836,362.259L455.618,363.04C458.319,365.695,460.096,367.969,460.949,369.866C461.802,371.763,462.228,373.951,462.228,376.44C462.228,381.985,460.516,386.356,457.092,389.554C453.668,392.752,448.983,394.353,443.036,394.353C440.5,394.353,438.102,394.051,435.839,393.447C433.576,392.843,431.675,392.006,430.135,390.94Z'); } 80% { d: path('M116.615,341.29L131.044,341.29L129.658,371.998L139.183,341.29L150.841,341.29L150.699,371.998L158.98,341.29L173.409,341.29L155.141,393.181L141.813,393.181L141.955,360.731L131.826,393.181L118.534,393.181ZM226.834,375.055L232.627,375.055L232.805,355.827ZM206.647,393.181L226.159,341.29L243.254,341.29L246.914,393.181L232.271,393.181L232.343,385.539L223.777,385.539L221.502,393.181ZM291.834,393.181L300.044,341.289L314.545,341.289L306.299,393.18L291.834,393.18ZM360.484,393.18L368.73,341.289L383.265,341.289L377.081,380.313L387.708,380.313L385.683,393.18ZM432.623,377.221C434.234,378.572,435.928,379.615,437.706,380.35C439.484,381.085,441.188,381.451,442.823,381.451C444.268,381.451,445.417,381.054,446.27,380.261C447.123,379.468,447.55,378.383,447.55,377.008C447.55,375.825,447.194,374.645,446.484,373.472C445.774,372.299,444.398,370.742,442.361,368.799C439.896,366.406,438.203,364.297,437.278,362.472C436.353,360.647,435.893,358.634,435.893,356.431C435.893,351.479,437.462,347.545,440.602,344.631C443.742,341.717,448,340.259,453.379,340.259C455.559,340.259,457.631,340.502,459.598,340.988C461.565,341.474,463.566,342.226,465.605,343.245L463.543,355.898C461.979,354.808,460.457,353.979,458.977,353.41C457.497,352.841,456.08,352.556,454.729,352.556C453.521,352.556,452.566,352.87,451.868,353.497C451.17,354.124,450.819,354.985,450.819,356.075C450.819,357.545,452.158,359.606,454.836,362.259L455.618,363.04C458.319,365.695,460.096,367.969,460.949,369.866C461.802,371.763,462.228,373.951,462.228,376.44C462.228,381.985,460.516,386.356,457.092,389.554C453.668,392.752,448.983,394.353,443.036,394.353C440.5,394.353,438.102,394.051,435.839,393.447C433.576,392.843,431.675,392.006,430.135,390.94Z'); } 100% { d: path('M116.615,341.29L131.044,341.29L129.658,371.998L139.183,341.29L150.841,341.29L150.699,371.998L158.98,341.29L173.409,341.29L155.141,393.181L141.813,393.181L141.955,360.731L131.826,393.181L118.534,393.181ZM226.834,375.055L232.627,375.055L232.805,355.827ZM206.647,393.181L226.159,341.29L243.254,341.29L246.914,393.181L232.271,393.181L232.343,385.539L223.777,385.539L221.502,393.181ZM291.834,393.181L300.044,341.289L314.545,341.289L306.299,393.18L291.834,393.18ZM360.484,393.18L368.73,341.289L383.265,341.289L377.081,380.313L387.708,380.313L385.683,393.18ZM432.623,377.221C434.234,378.572,435.928,379.615,437.706,380.35C439.484,381.085,441.188,381.451,442.823,381.451C444.268,381.451,445.417,381.054,446.27,380.261C447.123,379.468,447.55,378.383,447.55,377.008C447.55,375.825,447.194,374.645,446.484,373.472C445.774,372.299,444.398,370.742,442.361,368.799C439.896,366.406,438.203,364.297,437.278,362.472C436.353,360.647,435.893,358.634,435.893,356.431C435.893,351.479,437.462,347.545,440.602,344.631C443.742,341.717,448,340.259,453.379,340.259C455.559,340.259,457.631,340.502,459.598,340.988C461.565,341.474,463.566,342.226,465.605,343.245L463.543,355.898C461.979,354.808,460.457,353.979,458.977,353.41C457.497,352.841,456.08,352.556,454.729,352.556C453.521,352.556,452.566,352.87,451.868,353.497C451.17,354.124,450.819,354.985,450.819,356.075C450.819,357.545,452.158,359.606,454.836,362.259L455.618,363.04C458.319,365.695,460.096,367.969,460.949,369.866C461.802,371.763,462.228,373.951,462.228,376.44C462.228,381.985,460.516,386.356,457.092,389.554C453.668,392.752,448.983,394.353,443.036,394.353C440.5,394.353,438.102,394.051,435.839,393.447C433.576,392.843,431.675,392.006,430.135,390.94Z'); } }
    </style>
    <path d="M260.266,104.287L301.929,93.442L268.858,115.754Z" fill="#ebebeb" opacity="0" filter="none" stroke="none" fill-rule="evenodd" stroke-width="12" transform="translate(283.773,552.332) translate(-281.097,-104.598)" style="mix-blend-mode: normal; animation: 1s linear both a0_t, 1s linear both a0_o;"/>
    <g fill-rule="nonzero" opacity="0" filter="none" transform="translate(275.5,645) translate(-272.824,-197.266)" style="mix-blend-mode: normal; animation: 1s linear both a1_t, 1s linear both a1_o;">
        <path d="M116.615,341.29L131.044,341.29L129.658,371.998L139.183,341.29L150.841,341.29L150.699,371.998L158.98,341.29L173.409,341.29L155.141,393.181L141.813,393.181L141.955,360.731L131.826,393.181L118.534,393.181ZM226.834,375.055L232.627,375.055L232.805,355.827ZM206.647,393.181L226.159,341.29L243.254,341.29L246.914,393.181L232.271,393.181L232.343,385.539L223.777,385.539L221.502,393.181ZM291.834,393.181L300.044,341.289L314.545,341.289L306.299,393.18L291.834,393.18ZM360.484,393.18L368.73,341.289L383.265,341.289L377.081,380.313L387.708,380.313L385.683,393.18ZM432.623,377.221C434.234,378.572,435.928,379.615,437.706,380.35C439.484,381.085,441.188,381.451,442.823,381.451C444.268,381.451,445.417,381.054,446.27,380.261C447.123,379.468,447.55,378.383,447.55,377.008C447.55,375.825,447.194,374.645,446.484,373.472C445.774,372.299,444.398,370.742,442.361,368.799C439.896,366.406,438.203,364.297,437.278,362.472C436.353,360.647,435.893,358.634,435.893,356.431C435.893,351.479,437.462,347.545,440.602,344.631C443.742,341.717,448,340.259,453.379,340.259C455.559,340.259,457.631,340.502,459.598,340.988C461.565,341.474,463.566,342.226,465.605,343.245L463.543,355.898C461.979,354.808,460.457,353.979,458.977,353.41C457.497,352.841,456.08,352.556,454.729,352.556C453.521,352.556,452.566,352.87,451.868,353.497C451.17,354.124,450.819,354.985,450.819,356.075C450.819,357.545,452.158,359.606,454.836,362.259L455.618,363.04C458.319,365.695,460.096,367.969,460.949,369.866C461.802,371.763,462.228,373.951,462.228,376.44C462.228,381.985,460.516,386.356,457.092,389.554C453.668,392.752,448.983,394.353,443.036,394.353C440.5,394.353,438.102,394.051,435.839,393.447C433.576,392.843,431.675,392.006,430.135,390.94Z" fill="#ffffff" opacity="1" transform="translate(283.11,622.306) translate(-291.11,-367.306)" style="animation: 1s linear both a2_t, 1s linear both a2_o, 1s linear both a2_d;"/>
        <path d="M0.883,-0.081L0.121,0.081L0.256,-0.063Z" fill="url(#Gradient-0)" transform="translate(63.7703,169.943) rotate(-1.57175) scale(-166.662,166.662) translate(-0.502,0)"/>
        <path d="M0.878,-0.285L-0.073,0.71L-1.186,0.542L0.015,0.207L-0.846,0.077L0.355,-0.258L-0.505,-0.388L0.649,-0.71Z" fill="url(#Gradient-1)" transform="translate(444.582,190.507) rotate(8.58364) scale(-107.649,107.649) translate(0.154,0)"/>
        <path d="M0.44,-0.04L0.265,-0.056L0.177,0.437L-0.311,-0.255L0.262,-0.437L0.568,-0.437Z" fill="url(#Gradient-2)" transform="translate(318.58,264.935) rotate(54.8194) scale(-198.703,198.703) translate(-0.1285,0)"/>
        <path d="M0.622,-0.115L0.761,-0.115L0.806,-0.013L0.826,0.182Z" fill="url(#Gradient-3)" transform="translate(295.932,57.8853) rotate(-128.544) scale(-382.153,382.153) translate(-0.724,-0.0335)"/>
        <path d="M0.467,0.005L0.49,0.062L0.271,-0.062Z" fill="url(#Gradient-4)" transform="translate(441.774,56.9618) rotate(14.7678) scale(-382.153,382.153) translate(-0.3805,0)"/>
        <path d="M0.2,0.001L0.219,-0.018L0.614,0.012L0.519,0.089L0.282,0.068L0.2,0.135L0.463,0.194L0.374,0.266L0.138,0.186L0.047,0.033L-0.131,-0.266Z" fill="url(#Gradient-5)" transform="translate(248.066,112.05) rotate(6.2086) scale(-499.083,499.083) translate(-0.2415,0)"/>
    </g>
</svg>
