<svg fill-rule="evenodd" stroke-linejoin="round" stroke-miterlimit="2" viewBox="0 0 1291 314" xmlns="http://www.w3.org/2000/svg" xmlns:xlink="http://www.w3.org/1999/xlink"><linearGradient id="a"><stop offset="0" stop-color="#e33232"/><stop offset="1" stop-color="#6b000d"/></linearGradient><linearGradient id="b" gradientUnits="userSpaceOnUse" x1="0" x2="1" xlink:href="#a" y1="0" y2="0"/><linearGradient id="c" gradientUnits="userSpaceOnUse" x1="1.35" x2=".548" xlink:href="#a" y1=".447" y2="-.15"/><g fill-rule="nonzero"><path d="m581.01 111.758h36.254l-3.482 77.156 23.932-77.156h29.292l-.357 77.156 20.807-77.156h36.254l-45.9 130.38h-33.488l.357-81.533-25.45 81.533h-33.397zm229.556 84.837h14.555l.447-48.312-15.003 48.312zm-50.721 45.543 49.025-130.38h42.953l9.196 130.38h-36.792l.181-19.201h-21.523l-5.716 19.201zm169.973 0 20.628-130.382h36.435l-20.72 130.38-36.344.001zm125.862 0 20.719-130.38h36.52l-15.538 98.051h26.701l-5.088 32.329h-63.315zm143.45-40.278c4.048 3.394 8.304 6.015 12.771 7.862s8.749 2.766 12.857 2.766c3.631 0 6.518-.997 8.661-2.99s3.216-4.719 3.216-8.173c0-2.972-.894-5.937-2.678-8.884s-5.241-6.859-10.359-11.741c-6.194-6.013-10.447-11.312-12.771-15.897s-3.48-9.643-3.48-15.178c0-12.442 3.942-22.327 11.832-29.648s18.588-10.985 32.103-10.985c5.477 0 10.683.611 15.626 1.832s9.97 3.111 15.093 5.671l-5.181 31.792c-3.93-2.739-7.754-4.822-11.472-6.251-3.724-1.432-7.279-2.146-10.673-2.146-3.035 0-5.435.789-7.188 2.364s-2.636 3.739-2.636 6.477c0 3.693 3.364 8.872 10.093 15.538l1.965 1.962c6.786 6.671 11.251 12.385 13.395 17.151 2.143 4.761 3.214 10.264 3.214 16.518 0 13.932-4.302 24.915-12.905 32.95s-20.375 12.058-35.317 12.058c-6.372 0-12.397-.759-18.083-2.276-5.686-1.523-10.462-3.621-14.332-6.299l6.251-34.47z"/><g fill="url(#b)"><path d="m.883-.081-.762.162.135-.144z" transform="matrix(-166.599 4.57132 4.57132 166.599 147.403 167.564)"/><path d="m.878-.285-.951.995-1.113-.168 1.201-.335-.861-.13 1.201-.335-.86-.13 1.154-.322z" transform="matrix(-106.443 -16.0669 -16.0669 106.443 428.19 187.949)"/><path d="m.44-.04-.175-.016-.088.493-.488-.692.573-.182h.306z" transform="matrix(-114.484 -162.408 -162.408 114.484 333.291 285.72)"/></g><path d="m.622-.115h.139l.045.102.02.195z" fill="url(#c)" transform="matrix(238.126 298.893 298.893 -238.126 113.516 -150.62)"/><path d="m.467.005.023.057-.219-.124z" fill="url(#b)" transform="matrix(-369.529 -97.4118 -97.4118 369.529 582.38 93.9429)"/></g><path d="m260.19 104.246 41.827-10.987-33.349 21.56z" fill="#fff"/><path d="m.2.001.019-.019.395.03-.095.077-.237-.021-.082.067.263.059-.089.072-.236-.08-.091-.153-.178-.299z" fill="url(#b)" fill-rule="nonzero" transform="matrix(-496.156 -53.9751 -53.9751 496.156 367.888 125.001)"/></svg>